<svg xmlns="http://www.w3.org/2000/svg" xml:space="preserve" width="1500" height="561" data-id="lg_am2Frfy86sJzWuI1NX" data-version="1" viewBox="0 0 1500 561"><g data-padding="20"><g transform="translate(10 10.81)scale(.96146)"><path fill="#001f3f" d="M1015.461 206.881h.35v129.665c0 16.077-12.508 29.11-27.938 29.11H551.084c-15.43 0-27.939-13.033-27.939-29.11V206.881h.35q-.333-6.786-.35-13.676C523.145 51.465 633.415.082 769.47.082s246.325 51.382 246.325 193.123q0 6.873-.35 13.676Z"/><path fill="#fff" d="m1012.78 261.821-178.427-14.415q-8.193-.744-15.707-3.906l85.315-85.56c10.622-10.602 8.757-12.183-4.18-3.441l-103.96 70.215a45.2 37.2 0 0 1-4.69-12.927L773.558 64.939c-2.147-17.81-5.65-17.81-7.797 0l-17.515 146.847a45.2 37.2 0 0 1-4.746 12.927l-103.96-70.214c-12.884-8.742-14.805-7.208-4.183 3.44l85.315 85.56a45.2 37.2 0 0 1-15.706 3.86L526.54 261.821c-21.64 1.767-21.64 4.65 0 6.417l178.426 14.415q8.193.744 15.707 3.906l-85.315 85.56c-10.622 10.602-8.757 12.183 4.181 3.44l103.96-70.214q3.842 6.184 4.69 12.927l17.571 146.847c2.147 17.809 5.65 17.809 7.797 0l17.516-146.847q.96-6.743 4.69-12.927l103.96 70.215c12.994 8.742 14.86 7.16 4.237-3.441l-85.315-85.56a45.2 37.2 0 0 1 15.707-3.86l178.427-14.461c21.64-1.767 21.64-4.65 0-6.417"/><rect width="377.795" height="115.26" x="203.633" y="-57.208" fill="none" rx="0" ry="0" transform="matrix(1.3 0 0 1.3 270.21 485.45)"/><path fill="#001f3f" d="M576.075 522.633v-85.787h-22.802l-2.119 17.498-2.522-1.066 1.326-16.432h-.13l.26-1.066.13-1.586.273.13v-.13h60.203l1.716 19.084-2.652 1.066-2.119-17.498h-23.205v87.646l9.685.533q0 .13-.143 1.989l-26.52.13q0-1.196.143-1.859l6.89-.923q1.326-.143 1.586-1.729m59.15-56.485v10.608q10.465-15.379 20.553-15.652h1.586l7.423.936-3.445 7.956q-2.522-2.522-6.5-2.522-9.672.13-19.617 12.857v44.031l11.271.663q0 .13-.143 1.989l-27.846.13q0-1.196.143-1.859l6.89-.923q1.066-.143 1.066-1.859v-57.551q-.273-.923-.806-.923l-7.956-.273.143-1.859q7.15-1.183 10.868-1.183t5.044 1.716q1.326 1.729 1.326 3.718m79.95 55.822h-.39q-11.934 5.564-23.205 5.564-17.64 0-18.707-13.923-.13-.923-.13-1.716 0-10.218 13.39-13.663 7.956-1.716 28.652-4.108V482.45q0-5.564-1.326-9.542t-2.925-5.902q-1.586-1.924-4.108-2.977-3.185-1.326-7.098-1.326t-8.944 1.989q-7.293 3.042-13 7.683l-.533 10.348-2.509.663v-16.042l1.326-.533q10.335-4.511 15.77-5.434 5.446-.936 7.955-1.001 2.522-.065 4.85.065 2.313.13 6.031 1.196 3.705 1.066 6.435 2.977 2.717 1.924 4.706 5.772t1.99 9.152v40.573q0 4.108 2.118 4.108l8.086.403-.13 1.989q-7.423 1.066-13.26 1.066-1.599-.143-3.315-1.664-1.729-1.521-1.729-4.043m-21.216 3.445q9.815 0 20.826-6.89v-21.879q-19.89.663-24.999 2.314-5.109 1.664-7.033 5.174t-1.924 6.968v1.326q.403 6.89 4.121 9.945 3.705 3.042 9.01 3.042m87.645-64.571 24.401-.13q0 .13.13 1.989l-10.608 1.183-25.454 63.128h-7.956l-23.075-62.062q-.793-1.196-1.989-1.456l-6.89-.663-.13-1.989 27.976-.13q0 .13.13 1.989l-9.815.663 20.826 60.853 21.736-58.734q.403-.663-.455-1.261-.87-.598-1.794-.728l-6.89-.663Zm31.434 35.672q0 28.639 22.27 28.639 5.836 0 12.466-1.261t8.49-2.327l.922 1.326q-3.042 1.989-10.01 3.315-6.955 1.326-12.727 1.326t-10.335-1.183q-4.576-1.196-9.36-4.251-4.77-3.042-7.553-9.542t-2.782-15.912q0-17.511 9.01-26.793 9.424-9.672 21.878-9.672 12.467 0 19.032 6.89 6.565 6.903 6.565 19.357 0 2.652-.403 5.707H813.17q-.13 1.456-.13 4.381m40.04-11.011q0-9.945-4.368-16.25-4.38-6.292-11.934-6.292-9.815 0-16.575 8.619-5.447 6.76-6.773 18.031h39.52q.13-1.456.13-4.108m45.084 41.509-26.65.13.13-1.859 6.903-.923q.923-.143 1.183-1.326v-90.701q0-1.456-.793-1.456l-8.086-.273.13-1.859q8.36-1.183 11.48-1.183 3.106 0 4.497 1.716 1.391 1.729 1.391 3.718v91.364l9.945.663q0 .13-.13 1.989m35.412 0-26.663.13.143-1.859 6.89-.923q.923-.143 1.196-1.326v-90.701q0-1.456-.793-1.456l-8.099-.273.143-1.859q8.346-1.183 11.466-1.183t4.511 1.716q1.391 1.729 1.391 3.718v91.364l9.945.663q0 .13-.13 1.989m42.354.52q-13.858 0-22.412-7.956t-8.554-24.323q0-16.38 9.087-25.727 9.074-9.347 22.867-9.347t22.412 7.956 8.62 24.323q0 16.38-9.088 25.727t-22.932 9.347m.858-64.974q-9.945 0-16.575 8.619t-6.63 23.413q0 14.781 6.292 22.672 6.305 7.891 16.25 7.891t16.575-8.619 6.63-23.335q0-14.729-6.305-22.685-6.292-7.956-16.237-7.956"/></g><path fill="transparent" stroke="transparent" d="M490.5 0h519v561h-519z"/></g></svg>